<svg xmlns="http://www.w3.org/2000/svg"  viewBox="0 0 48 48" width="48px" height="48px"><path fill="#8ce7f2" d="M40,44H15c-2.2,0-4-1.8-4-4V15c0-2.2,1.8-4,4-4h25c2.2,0,4,1.8,4,4v25C44,42.2,42.2,44,40,44z"/><path fill="none" stroke="#18193f" stroke-linecap="round" stroke-linejoin="round" stroke-miterlimit="10" stroke-width="3" d="M40.5,31.7v4.8c0,2.2-1.8,4-4,4h-25c-2.2,0-4-1.8-4-4V24.9"/><path fill="none" stroke="#18193f" stroke-linecap="round" stroke-linejoin="round" stroke-miterlimit="10" stroke-width="3" d="M7.5,19.2v-7.7c0-2.2,1.8-4,4-4h25c2.2,0,4,1.8,4,4v14"/><circle cx="15.5" cy="15.5" r="2.5" fill="#18193f"/><path fill="#18193f" d="M17,35h-3c-0.6,0-1-0.4-1-1V21c0-0.6,0.4-1,1-1h3c0.6,0,1,0.4,1,1v13C18,34.6,17.6,35,17,35z"/><path fill="#18193f" d="M29,20c-1.5,0-2.9,0.6-4,1.5V21c0-0.6-0.4-1-1-1h-3c-0.6,0-1,0.4-1,1v13c0,0.6,0.4,1,1,1h3c0.6,0,1-0.4,1-1	v-7.5c0-1.4,1.1-2.5,2.5-2.5s2.5,1.1,2.5,2.5V34c0,0.6,0.4,1,1,1h3c0.6,0,1-0.4,1-1v-8C35,22.7,32.3,20,29,20z"/></svg>