<svg xmlns="http://www.w3.org/2000/svg" version="1.1" xmlns:xlink="http://www.w3.org/1999/xlink" xmlns:svgjs="http://svgjs.dev/svgjs" viewBox="0 0 800 800"><defs><linearGradient x1="50%" y1="0%" x2="50%" y2="100%" id="ccchaos-grad"><stop stop-color="hsl(206, 75%, 49%)" stop-opacity="1" offset="0%"></stop><stop stop-color="hsl(331, 90%, 56%)" stop-opacity="1" offset="100%"></stop></linearGradient></defs><g stroke-width="2" stroke="url(#ccchaos-grad)" fill="none" stroke-linecap="round"><path d="M380.7 104.09C390.12 101.3 399.54 100.36 408.94 101.35 418.36 103.78 427.79 107.92 437.22 113.45 446.7 119.63 456.21 126.42 465.76 133.4 475.4 139.86 485.11 145.85 494.9 151.17 504.81 155.32 514.83 158.69 524.94 161.37 535.2 163.07 545.56 164.47 555.99 165.81 566.53 166.87 577.11 168.4 587.66 170.59 598.22 173.17 608.64 176.75 618.83 181.37 628.84 186.72 638.46 193.14 647.53 200.54 656.2 208.63 664.12 217.54 671.15 227.09 677.53 237.1 682.85 247.54 686.97 258.26 690.29 269.18 692.34 280.23 693.07 291.29 693.04 302.39 691.77 313.43 689.34 324.36 686.42 335.28 682.6 346.07 678.06 356.74 673.54 367.38 668.69 377.91 663.73 388.32 659.41 398.73 655.38 409.03 651.84 419.18 649.43 429.34 647.78 439.1 646.89 448.42 647.2 457.71 648.15 466.5 649.63 474.74 652 482.88 654.59 490.39 657.21 497.22 661.58 506.85 667.89 522.22 668.97 528.13 668.39 533.69 661.01 544.58 654.22 551.24 648.77 556.98 642.39 563.69 635.19 571.57 627.52 580.91 619.18 591.53 610.26 603.35 601.06 616.22 591.43 629.74 581.48 643.42 571.4 656.8 561.1 669.2 550.67 679.92 540.21 688.62 529.68 694.6 519.16 697.45 508.66 697.53 498.18 694.53 487.77 688.79 477.39 681.61 467.09 673.23 456.87 664.63 446.69 657.48 436.59 652.12 426.59 649.37 416.61 650.19 406.71 654.22 396.91 661.2 387.11 670.85 377.63 681.48 368.45 691.88 359.26 701.5 350.37 708.68 341.78 712.66 333.15 713.52 324.81 710.57 316.75 704.11 308.64 694.94 300.79 683.39 293.21 670.37 285.56 656.87 278.14 643.51 270.97 631.03 263.68 620.11 256.61 610.93 249.74 603.63 242.73 598.49 235.9 595.04 229.24 592.94 222.42 592.31 215.75 592.25 209.25 592.32 202.57 592.74 196.04 592.57 189.68 591.51 183.17 590 176.84 587.27 170.74 583.29 164.52 578.56 158.55 572.61 152.88 565.58 147.17 557.9 141.8 549.34 136.84 540.1 131.92 530.46 127.46 520.37 123.5 510 119.68 499.44 116.42 488.76 113.75 478.08 111.29 467.34 109.46 456.69 108.3 446.2 107.37 435.71 107.11 425.39 107.57 415.29 108.23 405.19 109.56 395.53 111.5 386.29 113.59 377.01 116.23 368.11 119.38 359.54 122.58 350.88 126.22 342.46 130.25 334.25 134.24 325.84 138.57 317.52 143.18 309.22 147.67 300.6 152.41 291.88 157.36 282.99 162.13 273.71 167.1 264.2 172.24 254.43 177.18 244.31 182.31 233.99 187.61 223.55 192.72 213.01 198.03 202.59 203.54 192.47 208.9 182.69 214.49 173.58 220.33 165.36 226.06 157.97 232.06 151.77 238.33 146.91 244.55 143.06 251.07 140.53 257.88 139.27 264.66 138.6 271.75 138.75 279.14 139.44 286.53 139.8 294.21 140.03 302.17 139.82 310.14 138.43 318.38 136.19 326.88 133.06 335.37 128.68 344.12 123.69 353.1 118.43 362.07 112.89 371.27 107.95 380.69 104.09" stroke-dasharray="11 8" transform="rotate(0, 400, 400)" opacity="0.58"></path><path d="M383.44 114.8C392.56 112.02 401.71 110.99 410.88 111.8 420.06 113.99 429.29 117.85 438.55 123.08 447.85 129.01 457.21 135.64 466.63 142.57 476.12 149.12 485.69 155.34 495.34 161.01 505.09 165.62 514.93 169.51 524.85 172.7 534.87 174.89 544.95 176.66 555.06 178.23 565.24 179.34 575.38 180.7 585.44 182.51 595.45 184.51 605.26 187.3 614.77 190.97 624.07 195.22 632.93 200.45 641.2 206.63 649.05 213.44 656.16 221.1 662.38 229.49 667.99 238.37 672.57 247.79 676.04 257.61 678.77 267.72 680.34 278.07 680.71 288.54 680.41 299.14 679.01 309.76 676.56 320.33 673.72 330.94 670.08 341.45 665.8 351.83 661.58 362.22 657.07 372.47 652.46 382.53 648.46 392.61 644.71 402.5 641.37 412.16 639.07 421.83 637.43 431.02 636.47 439.7 636.59 448.36 637.29 456.47 638.47 463.99 640.47 471.45 642.69 478.28 644.97 484.47 648.88 493.33 654.76 508.02 655.95 514.24 655.76 520.61 649.83 534.59 644.06 543.36 639.36 550.53 633.78 558.67 627.4 567.89 620.58 578.3 613.07 589.73 604.98 602 596.59 614.88 587.74 627.98 578.52 640.82 569.14 652.98 559.5 663.86 549.67 672.86 539.79 679.8 529.79 684.09 519.74 685.46 509.69 684.4 499.63 680.65 489.6 674.62 479.59 667.55 469.62 659.62 459.72 651.74 449.85 645.39 440.05 640.79 430.33 638.63 420.63 639.76 411.01 643.8 401.49 650.49 391.96 659.62 382.74 669.66 373.82 679.55 364.88 688.85 356.23 696.03 347.87 700.37 339.47 701.97 331.35 700.08 323.49 694.89 315.57 687.08 307.9 676.83 300.49 664.9 292.98 652.18 285.7 639.2 278.64 626.65 271.47 615.19 264.49 605.09 257.7 596.56 250.77 589.92 244.01 584.89 237.41 581.25 230.65 579.16 224.04 577.89 217.59 577.07 210.97 576.9 204.51 576.53 198.22 575.65 191.79 574.66 185.54 572.76 179.52 569.85 173.4 566.44 167.54 561.94 161.97 556.41 156.39 550.33 151.14 543.35 146.29 535.61 141.51 527.46 137.16 518.74 133.32 509.58 129.61 500.21 126.45 490.57 123.87 480.76 121.5 470.88 119.74 460.93 118.64 451 117.77 441.05 117.56 431.16 118.03 421.36 118.72 411.57 120.06 402.09 121.99 392.91 124.06 383.7 126.68 374.75 129.8 366.03 132.96 357.21 136.56 348.53 140.54 339.96 144.49 331.2 148.76 322.43 153.32 313.62 157.76 304.54 162.45 295.32 167.35 285.92 172.07 276.24 176.99 266.36 182.08 256.31 186.97 246.07 192.04 235.76 197.28 225.5 202.32 215.32 207.55 205.43 212.97 196.01 218.22 187.09 223.69 178.95 229.38 171.79 234.95 165.49 240.77 160.37 246.85 156.53 252.84 153.58 259.11 151.8 265.65 151.1 272.15 150.8 278.94 151.12 286.02 151.78 293.07 151.99 300.41 151.94 308.02 151.38 315.62 149.65 323.5 147.1 331.65 143.73 339.78 139.2 348.17 134.16 356.81 128.92 365.44 123.46 374.31 118.6 383.43 114.81" stroke-dasharray="2 10" transform="rotate(4.04, 400, 400)" opacity="0.75"></path><path d="M386.87 125.52C395.69 122.74 404.58 121.64 413.51 122.27 422.45 124.22 431.46 127.78 440.51 132.7 449.61 138.36 458.78 144.77 468.01 151.59 477.3 158.17 486.68 164.56 496.12 170.51 505.64 175.55 515.23 179.93 524.86 183.64 534.56 186.36 544.29 188.59 553.99 190.5 563.71 191.83 573.36 193.22 582.85 194.86 592.25 196.49 601.4 198.71 610.2 201.63 618.77 204.95 626.85 209.13 634.32 214.17 641.38 219.76 647.69 226.18 653.15 233.35 658.03 241 661.94 249.26 664.81 258.01 667.03 267.1 668.18 276.53 668.24 286.18 667.73 296.03 666.23 305.98 663.8 315.95 661.06 326.01 657.61 336.03 653.6 345.94 649.68 355.89 645.5 365.7 641.23 375.31 637.53 384.94 634.04 394.37 630.91 403.53 628.71 412.69 627.09 421.35 626.07 429.49 626.02 437.61 626.49 445.19 627.38 452.2 629.05 459.19 630.92 465.61 632.86 471.49 636.3 480.05 641.67 495.15 642.9 502.19 643.23 507.21 642.74 512.33 641.4 517.73 639.63 523.86 636.95 530.56 633.4 537.99 629.39 546.4 624.54 555.7 618.92 565.9 612.9 576.99 606.2 588.78 598.91 601.06 591.33 613.54 583.26 625.86 574.79 637.55 566.14 648.29 557.19 657.54 548.01 664.8 538.75 670.05 529.33 672.79 519.81 672.86 510.27 670.85 500.67 666.56 491.07 660.39 481.48 653.54 471.89 646.15 462.36 639.01 452.84 633.43 443.36 629.55 433.96 627.94 424.57 629.35 415.24 633.37 406 639.78 396.75 648.4 387.8 657.87 379.13 667.25 370.44 676.2 362.02 683.32 353.88 687.95 345.7 690.18 337.77 689.25 330.09 685.25 322.35 678.76 314.84 669.84 307.56 659.1 300.2 647.32 293.04 634.95 286.08 622.62 279.01 610.94 272.12 600.23 265.4 590.75 258.55 582.86 251.85 576.41 245.31 571.3 238.62 567.7 232.07 565.07 225.68 563.11 219.14 562.02 212.75 561.04 206.53 559.89 200.2 558.91 194.05 557.35 188.13 555.06 182.13 552.51 176.39 549.05 170.94 544.7 165.49 539.94 160.39 534.31 155.66 527.9 151.02 521.15 146.81 513.74 143.08 505.79 139.51 497.63 136.46 489.06 133.98 480.19 131.7 471.23 130.03 462.07 128.99 452.77 128.17 443.45 128 434.04 128.5 424.6 129.21 415.15 130.54 405.87 132.46 396.78 134.51 387.65 137.1 378.67 140.16 369.79 143.29 360.84 146.84 351.93 150.76 343.03 154.65 333.98 158.86 324.87 163.36 315.66 167.75 306.26 172.38 296.72 177.22 287.03 181.9 277.17 186.77 267.19 191.8 257.15 196.65 247.07 201.67 237.07 206.84 227.27 211.83 217.7 217 208.58 222.33 200.07 227.5 192.14 232.87 185.08 238.44 179.04 243.88 173.82 249.55 169.74 255.44 166.84 261.25 164.68 267.31 163.53 273.63 163.25 279.89 163.2 286.41 163.57 293.21 164.11 299.97 164.09 307 163.73 314.31 162.81 321.59 160.74 329.14 157.9 336.96 154.29 344.76 149.65 352.82 144.57 361.15 139.37 369.46 134.01 378.03 129.25 386.86 125.52" stroke-dasharray="8 0" transform="rotate(8.08, 400, 400)" opacity="0.90"></path><path d="M390.83 136.23C399.37 133.48 407.99 132.3 416.66 132.76 425.35 134.47 434.12 137.73 442.94 142.32 451.8 147.67 460.73 153.83 469.72 160.48 478.77 167.03 487.88 173.51 497.05 179.69 506.26 185.09 515.53 189.92 524.8 194.14 534.11 197.41 543.41 200.15 552.63 202.5 561.83 204.18 570.91 205.77 579.78 207.44 588.54 208.91 597 210.79 605.07 213.19 612.88 215.8 620.18 219.12 626.88 223.19 633.17 227.68 638.73 232.95 643.46 238.93 647.67 245.35 650.97 252.41 653.31 260.01 655.07 267.96 655.86 276.32 655.67 284.99 655 293.88 653.44 302.97 651.06 312.16 648.43 321.48 645.19 330.82 641.45 340.1 637.82 349.44 633.97 358.68 630.03 367.75 626.61 376.85 623.38 385.76 620.44 394.42 618.35 403.08 616.76 411.27 615.68 418.98 615.49 426.67 615.74 433.88 616.37 440.6 617.72 447.32 619.26 453.59 620.88 459.43 623.84 468.12 628.63 484.46 629.83 492.64 630.26 498.55 629.96 504.71 628.91 511.27 627.52 518.53 625.31 526.4 622.3 534.95 618.89 544.32 614.71 554.42 609.8 565.18 604.52 576.52 598.58 588.25 592.06 600.11 585.26 611.84 577.95 623.07 570.23 633.39 562.32 642.58 554.08 650.14 545.57 655.71 536.96 659.39 528.15 660.74 519.2 659.71 510.22 656.96 501.13 652.29 492.01 646.14 482.88 639.62 473.72 632.82 464.58 626.42 455.45 621.6 446.34 618.41 437.27 617.31 428.22 618.95 419.21 622.94 410.26 629.06 401.31 637.2 392.63 646.1 384.21 654.97 375.78 663.55 367.59 670.56 359.65 675.4 351.68 678.16 343.94 678.09 336.43 675.19 328.86 669.97 321.5 662.37 314.35 652.88 307.12 642.18 300.07 630.62 293.21 618.75 286.24 607.17 279.43 596.16 272.78 586.06 266.02 577.19 259.39 569.54 252.91 563.11 246.3 558.08 239.82 554.05 233.5 550.82 227.05 548.57 220.75 546.68 214.62 544.9 208.4 543.52 202.37 541.85 196.56 539.72 190.7 537.55 185.1 534.71 179.79 531.13 174.49 527.32 169.53 522.73 164.96 517.4 160.47 511.81 156.4 505.55 152.81 498.7 149.37 491.66 146.44 484.12 144.07 476.18 141.9 468.14 140.31 459.77 139.33 451.14 138.58 442.48 138.45 433.61 138.97 424.56 139.69 415.5 141.02 406.48 142.9 397.52 144.94 388.54 147.48 379.57 150.49 370.62 153.56 361.62 157.05 352.57 160.89 343.47 164.72 334.27 168.87 324.98 173.29 315.57 177.62 306.06 182.19 296.43 186.96 286.72 191.6 276.95 196.41 267.15 201.39 257.42 206.2 247.79 211.17 238.36 216.28 229.27 221.23 220.55 226.33 212.37 231.59 204.91 236.7 198.07 241.98 192.13 247.44 187.2 252.78 183.03 258.32 179.91 264.07 177.83 269.72 176.33 275.61 175.66 281.73 175.68 287.78 175.74 294.08 176.05 300.63 176.4 307.13 176.09 313.9 175.38 320.93 174.08 327.92 171.68 335.19 168.56 342.71 164.75 350.2 160.02 357.97 154.94 365.99 149.79 374 144.54 382.28 139.89 390.82 136.23" stroke-dasharray="8 8" transform="rotate(12.12, 400, 400)" opacity="0.39"></path><path d="M395.18 146.94C403.44 144.22 411.78 142.97 420.18 143.27 428.59 144.74 437.09 147.69 445.64 151.94 454.22 156.96 462.88 162.83 471.58 169.26 480.32 175.71 489.12 182.21 497.94 188.53 506.79 194.22 515.66 199.45 524.51 204.13 533.36 207.94 542.16 211.23 550.85 214.08 559.48 216.21 567.95 218.14 576.17 220.01 584.24 221.54 591.99 223.3 599.32 225.4 606.38 227.54 612.93 230.24 618.88 233.54 624.43 237.13 629.29 241.39 633.36 246.31 636.95 251.59 639.7 257.5 641.56 263.96 642.93 270.74 643.42 277.98 643.02 285.59 642.23 293.43 640.65 301.54 638.35 309.83 635.86 318.26 632.83 326.79 629.36 335.34 626.02 343.95 622.48 352.53 618.85 361.01 615.71 369.51 612.72 377.87 609.97 386.05 607.99 394.23 606.43 402.02 605.31 409.4 604.99 416.77 605.05 423.76 605.44 430.37 606.5 437.01 607.72 443.33 609.02 449.36 610.73 455.51 612.32 461.47 613.68 467.34 615.16 473.47 616.23 479.66 616.8 486.02 617.27 492.82 617.1 499.98 616.28 507.57 615.18 515.78 613.36 524.55 610.81 533.91 607.94 543.86 604.34 554.35 600.07 565.25 595.47 576.42 590.24 587.68 584.44 598.75 578.38 609.42 571.82 619.34 564.83 628.14 557.65 635.72 550.11 641.63 542.28 645.6 534.34 647.85 526.17 648.01 517.82 646.09 509.41 642.79 500.88 637.93 492.26 631.93 483.63 625.83 474.94 619.65 466.23 614 457.52 609.91 448.8 607.36 440.1 606.72 431.41 608.57 422.73 612.52 414.1 618.35 405.46 626 397.06 634.36 388.9 642.71 380.72 650.9 372.77 657.76 365.04 662.74 357.28 665.94 349.72 666.61 342.38 664.72 334.98 660.7 327.77 654.38 320.74 646.17 313.64 636.64 306.71 626.05 299.94 614.88 293.08 603.66 286.36 592.67 279.79 582.25 273.11 572.74 266.57 564.18 260.16 556.65 253.65 550.34 247.26 544.99 241.02 540.49 234.68 536.98 228.49 533.99 222.48 531.32 216.39 529.2 210.49 527.04 204.82 524.67 199.12 522.46 193.67 519.8 188.51 516.6 183.39 513.32 178.59 509.41 174.18 504.84 169.85 500.12 165.95 494.76 162.5 488.81 159.21 482.71 156.41 476.08 154.15 468.97 152.09 461.78 150.59 454.17 149.69 446.2 148.99 438.2 148.9 429.87 149.43 421.25 150.17 412.63 151.48 403.93 153.34 395.17 155.34 386.41 157.83 377.57 160.77 368.67 163.78 359.74 167.19 350.71 170.96 341.6 174.71 332.43 178.78 323.16 183.12 313.81 187.38 304.43 191.88 294.98 196.58 285.53 201.15 276.13 205.91 266.8 210.82 257.65 215.58 248.71 220.5 240.09 225.56 231.93 230.46 224.2 235.51 217.1 240.7 210.76 245.75 205.04 250.96 200.2 256.33 196.33 264.3 191.96 281.03 188.27 289.84 188.28 295.72 188.33 301.82 188.5 308.16 188.57 314.45 187.94 320.98 186.85 327.76 185.18 334.5 182.47 341.5 179.09 348.74 175.11 355.97 170.32 363.45 165.25 371.19 160.17 378.92 155.05 386.91 150.53 395.17 146.95" stroke-dasharray="9 7" transform="rotate(16.16, 400, 400)" opacity="0.53"></path><path d="M399.73 157.66C407.69 154.97 415.74 153.66 423.85 153.81 431.97 155.04 440.17 157.68 448.42 161.58 456.69 166.25 465.02 171.8 473.38 177.96 481.77 184.24 490.19 190.68 498.61 197.07 507.05 202.96 515.47 208.51 523.83 213.6 532.17 217.91 540.42 221.74 548.53 225.12 556.55 227.78 564.37 230.15 571.91 232.36 579.3 234.13 586.33 235.97 592.93 238 602.18 241.08 617.28 249.66 622.84 255.45 627.01 262.19 630.75 278.8 630.32 288.45 629.45 295.22 627.88 302.32 625.68 309.67 623.34 317.15 620.53 324.8 617.32 332.56 614.27 340.39 611.03 348.26 607.71 356.11 604.83 363.98 602.07 371.81 599.51 379.54 597.63 387.27 596.11 394.71 594.95 401.86 594.52 409.01 594.41 415.9 594.59 422.53 595.37 429.22 596.3 435.72 597.3 442.08 598.7 448.58 600.01 455.04 601.13 461.53 602.4 468.3 603.32 475.23 603.83 482.41 604.28 490 604.2 497.97 603.53 506.36 602.66 515.23 601.15 524.56 599 534.34 596.57 544.48 593.49 554.94 589.78 565.56 585.79 576.18 581.21 586.62 576.08 596.61 570.72 606 564.86 614.45 558.56 621.67 552.09 627.64 545.25 631.99 538.09 634.5 530.82 635.51 523.29 634.67 515.55 632.07 507.75 628.41 499.79 623.52 491.7 617.78 483.6 612.17 475.4 606.66 467.14 601.75 458.89 598.36 450.59 596.41 442.28 596.19 433.97 598.21 425.66 602.09 417.35 607.63 409.05 614.82 400.95 622.64 393.05 630.49 385.14 638.27 377.43 644.92 369.91 649.97 362.37 653.52 355.01 654.83 347.83 653.84 340.61 650.93 333.55 645.85 326.65 638.91 319.7 630.61 312.88 621.1 306.22 610.81 299.48 600.21 292.86 589.53 286.38 579.11 279.82 569.27 273.37 560.11 267.06 551.77 260.66 544.41 254.38 537.92 248.25 532.23 242.04 527.48 235.98 523.33 230.1 519.62 224.17 516.55 218.42 513.64 212.91 510.73 207.38 508.11 202.11 505.26 197.13 502.06 192.19 498.93 187.57 495.31 183.33 491.18 179.19 486.98 175.45 482.23 172.16 476.93 169.03 471.55 166.37 465.63 164.23 459.22 162.28 452.74 160.88 445.81 160.04 438.44 159.41 431.06 159.36 423.28 159.9 415.12 160.64 406.97 161.94 398.65 163.75 390.19 165.71 381.74 168.14 373.16 171.01 364.46 173.95 355.75 177.27 346.93 180.94 338.01 184.62 329.09 188.6 320.09 192.84 311.05 197.02 302.05 201.43 293.05 206.05 284.13 210.56 275.35 215.24 266.74 220.09 258.4 224.8 250.35 229.66 242.72 234.65 235.61 239.5 228.97 244.5 222.99 249.63 217.79 254.62 213.15 259.76 209.36 265.05 206.44 272.89 203.23 289.29 200.85 297.89 200.97 303.62 200.92 309.55 200.85 315.7 200.6 321.79 199.6 328.12 198.13 334.67 196.09 341.18 193.08 347.94 189.48 354.93 185.36 361.9 180.53 369.12 175.5 376.58 170.53 384.04 165.54 391.75 161.15 399.72 157.66" stroke-dasharray="0 3" transform="rotate(20.200000000000003, 400, 400)" opacity="0.79"></path><path d="M404.28 168.37C411.95 165.72 419.7 164.37 427.49 164.36 435.3 165.37 443.17 167.71 451.08 171.24 459 175.55 466.96 180.74 474.94 186.58 482.93 192.64 490.93 198.95 498.9 205.31 506.87 211.32 514.79 217.1 522.62 222.52 530.42 227.28 538.09 231.6 545.57 235.5 552.97 238.71 560.12 241.6 566.98 244.24 573.67 246.39 580 248.49 585.89 250.65 594.09 253.66 607.24 261.2 611.96 266.07 615.43 271.64 618.22 285.53 617.58 293.74 616.67 299.51 615.15 305.65 613.06 312.1 610.89 318.65 608.29 325.45 605.36 332.42 602.58 339.45 599.62 346.62 596.59 353.86 593.96 361.12 591.42 368.42 589.04 375.74 587.27 383.06 585.78 390.21 584.61 397.2 584.08 404.19 583.82 411.05 583.8 417.79 584.33 424.59 584.99 431.33 585.72 438.05 586.83 444.92 587.86 451.86 588.73 458.93 589.79 466.25 590.55 473.8 590.96 481.63 591.36 489.78 591.3 498.29 590.74 507.15 590.04 516.33 588.77 525.85 586.93 535.64 584.88 545.58 582.23 555.61 579.01 565.57 575.57 575.31 571.56 584.66 567.04 593.35 562.31 601.32 557.1 608.24 551.47 613.88 545.67 618.34 539.5 621.24 532.99 622.49 526.38 622.45 519.49 620.84 512.36 617.75 505.17 613.91 497.78 609.13 490.25 603.77 482.68 598.7 475 593.86 467.22 589.68 459.44 586.94 451.58 585.54 443.68 585.7 435.78 587.86 427.85 591.66 419.89 596.92 411.94 603.65 404.15 610.95 396.53 618.29 388.91 625.65 381.45 632.07 374.16 637.12 366.85 640.92 359.69 642.77 352.69 642.58 345.65 640.67 338.76 636.76 332.01 631.05 325.21 624.01 318.53 615.66 311.99 606.39 305.38 596.6 298.89 586.48 292.53 576.36 286.09 566.51 279.77 557.09 273.57 548.23 267.31 540.13 261.17 532.73 255.17 526.05 249.12 520.18 243.22 514.93 237.49 510.17 231.74 506.07 226.17 502.25 220.83 498.58 215.5 495.31 210.42 491.98 205.63 488.48 198.69 483.32 186.7 471.26 181.8 464.14 178.83 459.2 176.32 453.79 174.31 447.9 172.48 441.98 171.17 435.59 170.4 428.76 169.83 421.92 169.82 414.65 170.37 406.98 171.11 399.31 172.38 391.42 174.15 383.37 176.06 375.32 178.42 367.12 181.2 358.78 184.06 350.46 187.29 342.03 190.86 333.53 194.44 325.06 198.31 316.56 202.45 308.07 206.54 299.67 210.86 291.36 215.37 283.2 219.8 275.24 224.41 267.53 229.17 260.18 233.81 253.15 238.6 246.6 243.53 240.62 248.32 235.08 253.26 230.21 258.32 226.08 265.79 221 281.27 215.16 289.3 214.1 297.36 213.62 314.25 213.22 323.12 212.41 329.04 211.03 335.17 209.18 341.52 206.8 347.82 203.53 354.35 199.73 361.1 195.51 367.83 190.67 374.79 185.71 381.99 180.85 389.17 176.02 396.6 171.77 404.27 168.38" stroke-dasharray="10 5" transform="rotate(24.24, 400, 400)" opacity="0.48"></path><path d="M408.66 179.09C416.03 176.48 423.45 175.09 430.91 174.94 438.37 175.73 445.89 177.77 453.42 180.94 460.96 184.86 468.52 189.67 476.07 195.16 483.63 200.93 491.16 207.04 498.65 213.29 506.11 219.33 513.5 225.24 520.77 230.9 527.99 236.02 535.05 240.78 541.9 245.16 548.65 248.91 555.15 252.33 561.33 255.47 570.17 259.34 585.41 266.29 591.59 269.85 600.18 278.04 605.61 294.38 604.83 301.4 603.91 306.33 602.45 311.63 600.49 317.27 598.49 322.98 596.12 328.99 593.45 335.24 590.93 341.54 588.26 348.04 585.5 354.71 583.11 361.4 580.78 368.22 578.57 375.17 576.9 382.11 575.47 389.01 574.28 395.87 573.67 402.74 573.28 409.59 573.09 416.43 573.39 423.34 573.8 430.3 574.27 437.34 575.1 444.5 575.86 451.82 576.5 459.32 577.33 467.01 577.92 474.95 578.21 483.16 578.52 491.59 578.45 500.31 577.94 509.27 577.35 518.41 576.26 527.73 574.67 537.13 572.92 546.51 570.63 555.78 567.84 564.77 564.85 573.39 561.35 581.45 557.37 588.72 553.22 595.21 548.61 600.62 543.59 604.76 538.42 607.82 532.87 609.46 526.99 609.63 521.01 608.77 514.74 606.59 508.21 603.22 501.62 599.36 494.81 594.81 487.83 589.9 480.82 585.42 473.65 581.26 466.37 577.78 459.07 575.67 451.67 574.76 444.2 575.26 436.73 577.53 429.19 581.23 421.6 586.21 414.02 592.49 406.56 599.28 399.25 606.12 391.93 613.05 384.74 619.2 377.69 624.19 370.63 628.16 363.69 630.45 356.89 630.94 350.06 629.93 343.35 627.09 336.76 622.56 330.14 616.75 323.62 609.62 317.22 601.45 310.78 592.64 304.43 583.3 298.21 573.72 291.93 564.18 285.76 554.8 279.71 545.76 273.61 537.23 267.63 529.22 261.8 521.79 255.93 515.03 250.21 508.82 244.67 503.11 239.11 498 233.75 493.25 228.61 488.75 223.5 484.68 218.63 480.69 214.05 476.68 207.43 470.93 196.05 458.53 191.42 451.58 187.44 444.29 182.07 427.65 180.76 418.29 180.26 411.9 180.28 405.1 180.83 397.91 181.57 390.72 182.82 383.32 184.53 375.74 186.39 368.18 188.68 360.47 191.36 352.65 194.13 344.86 197.26 336.99 200.71 329.09 204.18 321.25 207.94 313.43 211.95 305.69 215.93 298.09 220.14 290.63 224.55 283.4 228.88 276.39 233.39 269.71 238.06 263.43 242.62 257.47 247.33 252.02 252.18 247.14 259.34 240.74 274.12 231.8 281.75 229.25 289.37 227.63 305.17 226.46 313.39 226.26 318.86 225.72 324.49 224.99 330.31 223.97 336.07 222.21 342.02 220 348.17 217.29 354.28 213.79 360.59 209.85 367.1 205.55 373.6 200.74 380.31 195.87 387.23 191.14 394.15 186.47 401.29 182.38 408.65 179.09" stroke-dasharray="3 4" transform="rotate(28.28, 400, 400)" opacity="0.19"></path><path d="M412.68 189.8C419.72 187.26 426.81 185.82 433.91 185.55 441.01 186.13 448.14 187.87 455.27 190.69 462.4 194.22 469.53 198.62 476.63 203.72 483.72 209.15 490.76 214.99 497.72 221.06 504.66 227.02 511.49 232.96 518.17 238.76 524.8 244.14 531.25 249.24 537.47 254.04 543.58 258.28 549.43 262.21 554.95 265.86 562.81 270.48 576.17 278.54 581.5 282.37 588.73 290.29 592.94 304.93 592.08 311.08 590.49 317.67 585.1 332.66 581.6 340.97 579.34 346.63 576.93 352.55 574.44 358.72 572.28 364.89 570.15 371.28 568.11 377.89 566.54 384.5 565.15 391.17 563.97 397.89 563.29 404.63 562.79 411.44 562.44 418.34 562.54 425.3 562.73 432.38 562.97 439.6 563.53 446.92 564.04 454.42 564.45 462.13 565.06 469.96 565.46 478.02 565.61 486.29 565.82 494.68 565.69 503.25 565.2 511.96 564.66 520.7 563.7 529.46 562.29 538.15 560.77 546.66 558.79 554.9 556.34 562.71 553.74 570.05 550.68 576.72 547.18 582.53 541.49 589.56 527.91 596.46 520.14 596.07 514.75 594.6 509.07 592.05 503.12 588.58 497.12 584.84 490.88 580.64 484.44 576.24 477.97 572.37 471.33 568.88 464.54 566.07 457.74 564.52 450.81 564.07 443.79 564.86 436.75 567.21 429.63 570.8 422.43 575.49 415.22 581.35 408.12 587.64 401.12 593.99 394.12 600.48 387.23 606.33 380.44 611.2 373.65 615.27 366.96 617.9 360.38 618.95 353.77 618.73 347.27 616.86 340.88 613.43 334.45 608.8 328.12 602.88 321.9 595.87 315.64 588.15 309.47 579.75 303.42 570.93 297.32 561.95 291.33 552.91 285.46 544 279.55 535.37 273.77 527.08 268.13 519.2 262.47 511.81 256.96 504.89 251.63 498.41 246.3 492.44 241.17 486.84 236.26 481.55 231.38 476.66 226.74 471.94 222.39 467.32 216.12 460.77 205.38 447.45 201.03 440.39 197.31 433.14 192.32 417.11 191.14 408.25 190.69 402.22 190.74 395.84 191.3 389.12 192.03 382.39 193.24 375.5 194.9 368.46 196.69 361.45 198.9 354.32 201.48 347.13 204.15 339.97 207.16 332.79 210.48 325.63 213.83 318.56 217.46 311.56 221.34 304.7 225.2 297.99 229.29 291.49 233.56 285.27 237.79 279.28 242.19 273.64 246.74 268.44 251.21 263.53 255.82 259.12 260.56 255.26 267.6 250.25 282.13 243.52 289.63 241.7 297.12 240.46 312.61 239.24 320.65 238.65 326 237.77 331.49 236.66 337.15 235.23 342.76 233.1 348.53 230.55 354.48 227.56 360.4 223.87 366.5 219.82 372.78 215.49 379.04 210.74 385.5 205.98 392.15 201.4 398.79 196.91 405.63 192.98 412.67 189.8" stroke-dasharray="8 8" transform="rotate(32.32, 400, 400)" opacity="0.09"></path><path d="M416.18 200.51C422.88 198.03 429.61 196.58 436.33 196.18 443.05 196.57 449.77 198.02 456.48 200.48 463.18 203.62 469.85 207.6 476.46 212.29 483.06 217.34 489.59 222.84 496.01 228.64 502.4 234.44 508.67 240.31 514.76 246.14 520.8 251.67 526.63 257.01 532.23 262.11 537.72 266.77 542.94 271.15 547.83 275.28 554.77 280.67 566.4 290.06 570.96 294.37 577.01 302.61 580.25 316.59 579.35 322.18 577.85 328.1 572.96 341.61 569.82 349.17 567.81 354.32 565.65 359.77 563.41 365.5 561.46 371.24 559.53 377.26 557.64 383.56 556.17 389.85 554.84 396.28 553.67 402.84 552.94 409.41 552.34 416.12 551.86 422.97 551.78 429.86 551.77 436.92 551.79 444.14 552.12 451.42 552.39 458.89 552.59 466.53 552.97 474.24 553.18 482.12 553.18 490.12 553.27 498.16 553.07 506.27 552.55 514.39 552.03 522.43 551.14 530.35 549.87 538.06 548.52 545.49 546.76 552.53 544.6 559.04 540.98 567.66 531.52 579.72 525.75 582.66 519.45 583.36 505.09 578.69 497.14 573.92 491.68 570.42 485.99 566.64 480.09 562.81 474.15 559.55 468.03 556.72 461.74 554.53 455.43 553.51 448.98 553.47 442.4 554.5 435.82 556.9 429.12 560.37 422.32 564.78 415.52 570.21 408.78 576.02 402.13 581.9 395.47 587.94 388.89 593.46 382.39 598.17 375.89 602.26 369.46 605.12 363.13 606.64 356.78 607.08 350.52 606.06 344.34 603.64 338.15 600.13 332.04 595.37 326.02 589.54 319.97 582.96 314.02 575.61 308.17 567.72 302.29 559.51 296.51 551.08 290.85 542.57 285.17 534.16 279.61 525.9 274.2 517.88 268.78 510.19 263.51 502.84 258.41 495.84 253.33 489.24 248.45 482.97 243.78 477.01 239.16 471.4 234.78 466.01 230.67 460.78 226.63 455.82 222.89 450.91 219.47 446.01 214.69 438.86 207.17 424.1 204.54 416.3 202.58 408.3 201.17 391.06 201.77 381.77 202.49 375.49 203.66 369.11 205.26 362.65 206.98 356.2 209.09 349.71 211.56 343.21 214.12 336.76 217 330.33 220.19 324 223.41 317.74 226.9 311.63 230.63 305.71 234.35 299.93 238.3 294.41 242.43 289.2 246.52 284.2 250.79 279.57 255.21 275.37 261.81 269.67 275.57 261.06 282.69 258.17 289.8 255.98 304.48 253.49 312.06 252.81 319.65 251.83 335.38 248.74 343.55 246.16 349 243.69 354.6 240.83 360.35 237.6 366.07 233.77 371.95 229.64 377.99 225.32 384.02 220.66 390.21 216.04 396.58 211.64 402.93 207.34 409.47 203.57 416.17 200.52" stroke-dasharray="2 6" transform="rotate(36.36, 400, 400)" opacity="0.71"></path><path d="M419.01 211.23C425.36 208.82 431.7 207.35 438.03 206.85 444.35 207.05 450.65 208.23 456.91 210.35 469.4 216.42 481.66 225.35 493.45 236.1 505.1 247.18 516.11 258.51 526.19 269.41 535.88 278.92 544.4 287.57 551.44 295.45 557.85 301.91 562.57 308.14 565.44 314.51 567.64 320.19 568.03 326.6 566.66 333.95 565.03 341.14 562.09 349.51 558.11 359.09 555.37 366.41 549.78 382.56 547.17 391.4 545.8 397.4 544.54 403.57 543.38 409.9 542.61 416.24 541.93 422.75 541.35 429.42 541.21 442.83 541.14 456.94 540.91 471.54 541.42 486.19 541.21 501.12 540.05 515.79 538.96 529.81 536.53 542.69 532.71 553.5 528.59 562.31 522.98 567.98 515.98 569.91 508.65 569.43 500.04 565.65 490.33 559.34 480.42 553.25 469.58 547.34 457.99 543.18 452.17 542.63 446.19 542.94 440.07 544.18 433.94 546.61 427.67 549.94 421.29 554.07 414.9 559.09 408.55 564.43 402.26 569.84 395.96 575.44 389.71 580.61 383.53 585.12 371.15 592.53 359 595.34 347.17 593.2 335.29 587.27 323.69 577.07 312.48 563.85 301.21 549.01 290.34 533.17 280.02 517.4 269.72 502.27 260.05 488.06 251.21 474.96 242.57 462.97 234.9 451.75 228.44 441.01 222.41 430.87 217.73 420.64 214.63 410.08 212.84 402.15 211.62 385.56 212.23 376.85 212.94 370.98 214.07 365.09 215.6 359.21 217.24 353.33 219.25 347.49 221.61 341.7 226.54 330.24 232.69 319.25 239.81 309.11 246.95 299.46 254.9 291.03 263.47 284.18 271.85 278.01 280.79 273.52 290.16 270.71 299.26 268.09 308.83 266.52 318.8 265.53 328.52 263.31 338.74 260.53 349.41 256.72 359.93 250.61 371.01 243.24 382.61 235.05 388.39 230.52 394.31 226.07 400.38 221.84 406.44 217.75 412.65 214.16 419 211.23" stroke-dasharray="6 10" transform="rotate(40.400000000000006, 400, 400)" opacity="0.27"></path><path d="M421.05 221.94C433.01 217.85 444.86 217.32 456.46 220.28 468.03 225.55 479.27 233.57 489.98 243.48 500.55 253.98 510.42 265.03 519.35 275.97 527.93 285.93 535.37 295.26 541.43 303.91 546.95 311.3 550.95 318.35 553.28 325.33 555.1 331.55 555.33 338.21 554.03 345.56 552.58 352.62 549.98 360.66 546.46 369.77 543.5 378.8 540.17 388.99 536.71 400.39 534.49 411.79 532.55 423.91 530.9 436.59 530.45 449.31 530.02 462.57 529.43 476.1 529.54 489.48 529.04 502.8 527.73 515.48 526.57 527.34 524.27 537.76 520.77 545.99 517.08 552.41 512.07 555.94 505.8 556.23 499.28 554.78 491.56 550.75 482.8 544.91 473.87 539.74 464 535.02 453.36 532.01 442.67 532.74 431.3 536.57 419.38 543.35 407.46 553.22 395.59 563.33 383.9 572.05 372.21 579.39 360.67 582.89 349.41 582.14 338.12 578.13 327.07 570.14 316.4 559.12 305.71 546.28 295.4 531.99 285.64 517.24 275.93 502.58 266.85 488.38 258.57 474.97 250.51 462.34 243.38 450.42 237.41 439.1 231.84 428.31 227.55 417.7 224.73 407.11 222.46 396.67 221.74 385.96 222.7 375 224.21 364.04 227.25 353.33 231.62 343.09 236.3 332.96 242.13 323.52 248.89 315.06 255.71 306.96 263.31 300.09 271.53 294.67 279.61 289.65 288.24 286.03 297.29 283.72 306.13 281.25 315.41 279.45 325.05 277.88 334.5 274.98 344.39 271.42 354.67 266.89 364.83 260.34 375.46 252.79 386.53 244.69 397.55 235.84 409.08 227.9 421.04 221.94" stroke-dasharray="8 5" transform="rotate(44.44, 400, 400)" opacity="0.63"></path><path d="M422.22 232.65C433.41 228.68 444.41 227.91 455.08 230.29 465.72 234.77 475.95 241.86 485.6 250.86 495.11 260.61 503.9 271.17 511.76 281.9 519.32 292.02 525.78 301.76 530.97 310.98 535.72 319.16 539.1 326.98 541 334.61 542.52 341.5 542.66 348.6 541.47 356.14 540.22 363.35 537.97 371.3 534.89 380.11 532.32 388.82 529.38 398.54 526.24 409.32 524.17 420.11 522.25 431.49 520.51 443.27 519.8 455.05 519.06 467.14 518.16 479.22 517.89 491.04 517.11 502.46 515.64 512.97 514.37 522.6 512.14 530.64 508.86 536.53 503.24 541.81 486.05 537.87 474.68 530.74 466.64 526.55 457.69 522.98 447.97 521.02 438.19 522.35 427.72 526.28 416.67 532.64 405.61 541.66 394.53 550.87 383.56 558.97 372.59 566.13 361.73 570.11 351.1 570.48 340.46 568.16 330.05 562.22 319.97 553.36 309.92 542.65 300.24 530.2 291.08 516.89 282.02 503.26 273.56 489.64 265.88 476.47 258.42 463.73 251.86 451.55 246.38 439.99 241.28 428.82 237.38 418.01 234.85 407.48 232.82 397.08 232.21 386.73 233.17 376.48 234.62 366.22 237.49 356.51 241.61 347.5 246.02 338.56 251.51 330.46 257.89 323.39 264.34 316.55 271.56 310.87 279.38 306.46 287.11 302.2 295.38 299.05 304.06 296.85 312.58 294.23 321.52 291.97 330.79 289.71 339.92 286.09 349.44 281.81 359.28 276.65 369.03 269.79 379.19 262.17 389.69 254.24 400.15 245.79 411.02 238.29 422.22 232.65" stroke-dasharray="6 2" transform="rotate(48.48, 400, 400)" opacity="0.55"></path><path d="M422.47 243.37C432.87 239.53 443 238.55 452.74 240.4 462.44 244.11 471.69 250.26 480.32 258.28 488.83 267.16 496.6 277.02 503.47 287.3 510.09 297.29 515.69 307.15 520.12 316.67 524.21 325.43 527.07 333.86 528.65 342.04 529.95 349.58 530.05 357.18 529 364.99 527.96 372.48 526.04 380.47 523.37 389.08 521.18 397.59 518.6 406.89 515.77 417.02 513.85 427.14 511.97 437.65 510.17 448.34 509.26 458.98 508.26 469.67 507.08 480.08 506.49 490.17 505.43 499.61 503.8 507.94 501.29 518.41 491.88 528.29 484.7 527 479.47 524.8 473.24 521.22 466.11 516.9 458.87 513.71 450.78 511.23 441.93 510.21 433.04 512.03 423.45 515.99 413.26 521.92 403.08 530.12 392.81 538.47 382.6 545.91 372.41 552.76 362.28 557.02 352.33 558.28 342.41 557.37 332.68 553.27 323.27 546.45 313.91 537.89 304.91 527.45 296.41 515.86 288.03 503.68 280.23 491.14 273.17 478.71 266.34 466.41 260.35 454.48 255.37 443.06 250.75 431.9 247.24 421.14 244.99 410.82 243.18 400.61 242.69 390.67 243.63 381.08 245.02 371.49 247.72 362.66 251.57 354.67 255.68 346.72 260.82 339.69 266.79 333.68 272.86 327.76 279.67 322.89 287.04 319.07 294.38 315.19 302.24 312.14 310.49 309.74 318.63 306.75 327.18 303.9 336.02 300.88 344.76 296.58 353.85 291.65 363.21 286 372.5 278.95 382.13 271.38 392.02 263.7 401.89 255.71 412.07 248.67 422.47 243.37" stroke-dasharray="6 4" transform="rotate(52.52, 400, 400)" opacity="0.42"></path><path d="M421.79 254.08C431.38 250.4 440.64 249.25 449.46 250.6 458.24 253.58 466.54 258.8 474.2 265.8 481.76 273.72 488.59 282.72 494.57 292.32 500.35 301.9 505.19 311.58 508.97 321.1 512.5 330.11 514.95 338.9 516.27 347.45 517.41 355.49 517.52 363.49 516.63 371.54 515.8 379.31 514.2 387.37 511.93 395.8 510.07 404.15 507.83 413.03 505.3 422.45 503.54 431.87 501.72 441.4 499.89 450.87 498.81 460.28 497.6 469.46 496.21 478.14 495.33 486.49 494.04 494.01 492.26 500.35 489.6 508.06 480.63 513.9 474.05 511.93 469.31 509.86 463.7 506.85 457.26 503.45 450.74 501.25 443.44 499.78 435.42 499.57 427.36 501.77 418.63 505.71 409.31 511.21 400 518.61 390.57 526.11 381.15 532.88 371.76 539.33 362.4 543.69 353.21 545.6 344.04 545.81 335.05 543.3 326.37 538.34 317.75 531.81 309.47 523.42 301.67 513.72 294.01 503.28 286.89 492.2 280.47 480.93 274.28 469.57 268.87 458.33 264.4 447.47 260.25 436.71 257.12 426.33 255.14 416.42 253.56 406.59 253.18 397.15 254.1 388.2 255.42 379.25 257.93 371.17 261.5 364 265.32 356.82 270.08 350.57 275.62 345.26 281.28 339.93 287.63 335.5 294.53 331.9 301.42 328.09 308.82 324.86 316.59 322.03 324.3 318.54 332.38 315.03 340.74 311.28 349.03 306.38 357.62 300.94 366.45 294.94 375.23 287.84 384.27 280.42 393.52 273.09 402.75 265.59 412.2 259.04 421.79 254.08" stroke-dasharray="1 4" transform="rotate(56.56, 400, 400)" opacity="0.40"></path><path d="M420.21 264.8C428.97 261.29 437.35 260 445.28 260.9 453.17 263.2 460.55 267.52 467.31 273.5 473.98 280.38 479.96 288.4 485.15 297.12 490.18 306.04 494.35 315.23 497.59 324.44 500.65 333.39 502.77 342.22 503.91 350.87 504.94 359.16 505.09 367.37 504.38 375.52 503.76 383.44 502.46 391.49 500.55 399.69 499.01 407.81 497.08 416.22 494.84 424.89 493.22 433.55 491.48 442.07 489.67 450.29 488.47 458.43 487.1 466.13 485.53 473.15 480.94 489.33 469.57 498.99 463.5 496.89 459.18 495.19 454.09 492.9 448.27 490.46 442.41 489.19 435.83 488.62 428.59 489.09 421.33 491.59 413.43 495.44 404.98 500.5 396.53 507.13 387.94 513.81 379.36 519.89 370.79 525.85 362.25 530.15 353.84 532.48 345.47 533.55 337.27 532.34 329.35 528.99 321.5 524.33 313.98 517.89 306.92 510.11 299.99 501.55 293.58 492.17 287.82 482.37 282.26 472.31 277.44 462.17 273.47 452.2 269.79 442.24 267.03 432.54 265.32 423.27 263.96 414.03 263.68 405.2 264.57 396.88 265.8 388.57 268.13 381.13 271.4 374.58 274.91 367.99 279.29 362.25 284.39 357.33 289.6 352.32 295.47 348.02 301.85 344.35 308.26 340.37 315.14 336.78 322.38 333.41 329.6 329.37 337.16 325.22 344.97 320.82 352.75 315.46 360.79 309.66 369.03 303.48 377.23 296.47 385.65 289.32 394.21 282.4 402.75 275.44 411.46 269.39 420.21 264.8" stroke-dasharray="8 5" transform="rotate(60.599999999999994, 400, 400)" opacity="0.76"></path><path d="M417.8 275.51C425.71 272.21 433.24 270.82 440.29 271.31 447.32 273 453.84 276.46 459.77 281.43 465.62 287.24 470.83 294.18 475.31 301.9 479.68 309.93 483.29 318.38 486.07 326.99 488.74 335.53 490.59 344.08 491.61 352.51 492.58 360.74 492.79 368.88 492.26 376.91 491.83 384.79 490.81 392.66 489.24 400.5 487.98 408.3 486.34 416.16 484.37 424.03 482.9 431.9 481.26 439.39 479.49 446.4 477.48 456.51 472.94 472.82 470.12 478.36 463 483.09 446.9 480.22 439.34 477.97 434.06 477.56 428.15 477.75 421.65 478.78 415.13 481.46 408.04 485.18 400.44 489.78 392.83 495.68 385.1 501.56 377.36 506.95 369.64 512.36 361.93 516.47 354.35 519.02 346.81 520.68 339.42 520.47 332.3 518.46 325.26 515.41 318.52 510.74 312.22 504.79 306.04 498.11 300.33 490.51 295.23 482.33 290.32 473.83 286.07 465.05 282.6 456.26 279.38 447.39 276.99 438.65 275.53 430.2 274.37 421.76 274.18 413.65 275.03 405.98 276.19 398.32 278.31 391.45 281.29 385.34 284.48 379.2 288.46 373.77 293.09 369 297.85 364.1 303.2 359.73 309.04 355.81 314.92 351.55 321.25 347.51 327.91 343.58 334.57 339.04 341.55 334.37 348.77 329.47 355.96 323.81 363.4 317.84 370.98 311.64 378.56 304.86 386.3 298.09 394.13 291.64 401.96 285.26 409.88 279.74 417.8 275.51" stroke-dasharray="4 1" transform="rotate(64.64, 400, 400)" opacity="0.08"></path><path d="M414.65 286.22C421.72 283.14 428.4 281.69 434.62 281.85 440.82 282.97 446.53 285.64 451.68 289.64 456.79 294.4 461.3 300.22 465.17 306.83 468.96 313.81 472.08 321.31 474.5 329.07 476.84 336.9 478.48 344.85 479.42 352.75 480.35 360.59 480.63 368.37 480.28 376.01 480.03 383.58 479.26 391.06 478 398.39 476.99 405.71 475.62 412.93 473.9 419.97 472.59 427 471.05 433.52 469.35 439.43 464.88 454.34 456.54 467.83 452.66 468.86 448.44 469.02 437.45 467 430.61 466.01 425.86 466.34 420.57 467.16 414.77 468.62 408.96 471.39 402.64 474.92 395.88 479.07 389.11 484.25 382.23 489.37 375.34 494.07 368.47 498.89 361.61 502.69 354.87 505.28 348.18 507.28 341.63 507.79 335.33 506.83 329.1 505.08 323.16 501.94 317.62 497.62 312.19 492.69 307.2 486.82 302.76 480.3 298.48 473.44 294.79 466.16 291.8 458.7 289.02 451.13 286.98 443.52 285.77 436.05 284.8 428.56 284.69 421.27 285.5 414.29 286.56 407.31 288.48 400.95 291.16 395.21 294.02 389.42 297.59 384.18 301.75 379.43 306.02 374.53 310.85 370 316.11 365.77 321.43 361.22 327.16 356.77 333.2 352.36 339.26 347.46 345.61 342.42 352.17 337.22 358.74 331.45 365.51 325.49 372.4 319.45 379.29 313.03 386.31 306.74 393.38 300.83 400.45 295.05 407.57 290.07 414.65 286.22" stroke-dasharray="6 7" transform="rotate(68.68, 400, 400)" opacity="0.99"></path><path d="M410.89 296.94C423.35 292 434.27 292.67 443.22 298.19 452.02 306.28 458.7 317.81 462.95 331.06 467.06 344.92 468.89 359.38 468.44 373.38 468.39 387.33 466.68 400.85 463.44 413.25 461.43 425.64 458.44 435.6 454.69 442.72 449.92 451.43 434.15 455.24 422.24 454.62 413.74 457.33 403.39 461.92 391.49 468.36 379.58 477.98 367.35 486.21 355.55 491.35 343.89 495.13 332.85 494.04 323.19 488.61 313.92 481.29 306.31 470.83 301.09 458.8 296.56 446.27 294.66 433.22 295.97 420.69 298.08 408.16 303.13 397.27 310.37 387.89 318.02 377.98 327.58 368.69 338.31 359.65 349.15 349.12 361.05 338.05 373.35 326.95 385.69 314.98 398.42 304.31 410.89 296.94" stroke-dasharray="8 7" transform="rotate(72.72, 400, 400)" opacity="0.15"></path><path d="M406.68 307.65C417.48 303.08 426.86 303.09 434.51 307.13 442.06 313.23 447.8 322.42 451.5 333.36 455.15 345.04 456.92 357.54 456.76 369.79 456.96 382.14 455.68 394.06 452.97 404.77 451.18 415.47 448.37 423.84 444.78 429.71 439.97 437.18 425.05 442.45 414.37 443.81 406.81 447.21 397.76 451.88 387.45 457.64 377.14 465.81 366.61 472.76 356.51 477.31 346.53 481.17 337.14 481.29 328.98 477.87 321.15 473.13 314.78 465.51 310.47 456.08 306.71 446.21 305.2 435.36 306.43 424.34 308.31 413.32 312.69 403.16 318.97 393.89 325.61 384.22 333.92 374.76 343.28 365.44 352.77 355.11 363.2 344.49 373.96 334.19 384.77 323.49 395.88 314.13 406.68 307.65" stroke-dasharray="8 1" transform="rotate(76.76, 400, 400)" opacity="0.79"></path><path d="M402.2 318.36C411.36 314.23 419.28 313.75 425.73 316.49 432.13 320.8 437.02 327.75 440.24 336.34 443.46 345.66 445.15 355.89 445.25 366.11 445.63 376.5 444.73 386.6 442.5 395.65 440.95 404.7 438.38 411.78 435.05 416.84 430.38 423.62 416.57 430.67 407.11 433.57 400.49 437.35 392.69 441.88 383.93 446.93 375.17 453.72 366.31 459.41 357.87 463.25 349.53 466.85 341.75 467.64 335.05 465.64 328.6 462.84 323.41 457.54 319.96 450.41 316.92 442.95 315.77 434.21 316.9 424.76 318.52 415.3 322.25 406.05 327.57 397.19 333.18 388.06 340.23 378.89 348.18 369.82 356.27 360.16 365.17 350.41 374.34 341.21 383.57 331.94 393.03 323.93 402.2 318.36" stroke-dasharray="4 9" transform="rotate(80.80000000000001, 400, 400)" opacity="0.92"></path><path d="M397.62 329.08C408.44 325.04 424.39 331.55 429.22 340.36 432.03 347.31 433.61 355.19 433.89 363.27 434.4 371.51 433.8 379.67 432.04 387.11 429.59 397.55 421.14 411.41 415.21 415.57 411.19 418.62 406.27 421.32 400.55 423.88 394.88 427.73 388.33 431.93 381.08 436.21 373.82 441.69 366.59 446.18 359.77 449.24 349.89 452.83 334.27 448.97 329.57 441.97 327.2 436.53 326.36 429.72 327.37 421.88 328.73 414.04 331.79 405.93 336.16 397.87 340.75 389.67 346.54 381.28 353.08 372.99 359.73 364.43 367.07 355.93 374.64 348.09 382.26 340.34 390.07 333.72 397.62 329.08" stroke-dasharray="7 8" transform="rotate(84.84, 400, 400)" opacity="0.59"></path><path d="M393.14 339.79C405.1 334.48 413.89 337.4 418.51 345.69 423.31 355.65 424.53 368.49 421.57 380.29 419.74 392.08 414.47 400.43 407.14 405.65 400.31 412.62 390.54 419.44 379 425.5 367.46 434.56 356.4 439.2 348.23 438.09 340.52 436.35 336.35 428.54 337.83 416.09 340.23 403.65 347.85 389.16 358.03 375.24 368.55 361.03 381.19 347.73 393.14 339.79" stroke-dasharray="7 1" transform="rotate(88.88, 400, 400)" opacity="0.93"></path><path d="M388.95 350.5C401.15 346.77 412.58 362.97 411.1 376.08 409.65 384.87 405.41 392.09 399.58 397.46 394.03 403.86 386.43 409.97 377.8 414.79 365.17 422.85 348.5 420.05 348.3 408.17 350.07 398.94 355.64 387.7 363.1 376.92 370.78 366.22 380.08 356.38 388.95 350.5" stroke-dasharray="11 0" transform="rotate(92.92, 400, 400)" opacity="0.38"></path><path d="M385.21 361.22C396.93 355.72 403.46 363.35 400.63 375.06 398.89 386.75 389.01 398.2 377.51 404.07 366.01 412.86 357.2 411.29 358.77 399.15 361.31 387.01 373.48 369.44 385.21 361.22" stroke-dasharray="11 10" transform="rotate(96.96, 400, 400)" opacity="0.26"></path></g></svg>