<svg xmlns="http://www.w3.org/2000/svg" version="1.1" xmlns:xlink="http://www.w3.org/1999/xlink" xmlns:svgjs="http://svgjs.dev/svgjs" viewBox="0 0 800 800" opacity="0.7"><g fill="none" stroke-width="3" stroke="hsl(105, 69%, 30%)" stroke-linecap="round"><line x1="166" y1="400" x2="634" y2="400" transform="rotate(0, 400, 400)" opacity="0.11"></line><line x1="542.5" y1="400" x2="257.5" y2="400" transform="rotate(4, 400, 400)" opacity="0.51"></line><line x1="649.5" y1="400" x2="150.5" y2="400" transform="rotate(8, 400, 400)" opacity="0.57"></line><line x1="505.5" y1="400" x2="294.5" y2="400" transform="rotate(12, 400, 400)" opacity="0.70"></line><line x1="503.5" y1="400" x2="296.5" y2="400" transform="rotate(16, 400, 400)" opacity="0.46"></line><line x1="621.5" y1="400" x2="178.5" y2="400" transform="rotate(20, 400, 400)" opacity="0.79"></line><line x1="203" y1="400" x2="597" y2="400" transform="rotate(24, 400, 400)" opacity="0.10"></line><line x1="385" y1="400" x2="415" y2="400" transform="rotate(28, 400, 400)" opacity="0.58"></line><line x1="58.5" y1="400" x2="741.5" y2="400" transform="rotate(32, 400, 400)" opacity="0.44"></line><line x1="636.5" y1="400" x2="163.5" y2="400" transform="rotate(36, 400, 400)" opacity="0.11"></line><line x1="484.5" y1="400" x2="315.5" y2="400" transform="rotate(40, 400, 400)" opacity="0.49"></line><line x1="217.5" y1="400" x2="582.5" y2="400" transform="rotate(44, 400, 400)" opacity="0.96"></line><line x1="484.5" y1="400" x2="315.5" y2="400" transform="rotate(48, 400, 400)" opacity="0.13"></line><line x1="691" y1="400" x2="109" y2="400" transform="rotate(52, 400, 400)" opacity="0.99"></line><line x1="636" y1="400" x2="164" y2="400" transform="rotate(56, 400, 400)" opacity="0.67"></line><line x1="681.5" y1="400" x2="118.5" y2="400" transform="rotate(60, 400, 400)" opacity="0.92"></line><line x1="209" y1="400" x2="591" y2="400" transform="rotate(64, 400, 400)" opacity="0.86"></line><line x1="581" y1="400" x2="219" y2="400" transform="rotate(68, 400, 400)" opacity="0.74"></line><line x1="731.5" y1="400" x2="68.5" y2="400" transform="rotate(72, 400, 400)" opacity="0.34"></line><line x1="102" y1="400" x2="698" y2="400" transform="rotate(76, 400, 400)" opacity="0.45"></line><line x1="131" y1="400" x2="669" y2="400" transform="rotate(80, 400, 400)" opacity="0.30"></line><line x1="585.5" y1="400" x2="214.5" y2="400" transform="rotate(84, 400, 400)" opacity="0.27"></line><line x1="486" y1="400" x2="314" y2="400" transform="rotate(88, 400, 400)" opacity="0.60"></line><line x1="679" y1="400" x2="121" y2="400" transform="rotate(92, 400, 400)" opacity="0.12"></line><line x1="660.5" y1="400" x2="139.5" y2="400" transform="rotate(96, 400, 400)" opacity="0.43"></line><line x1="706" y1="400" x2="94" y2="400" transform="rotate(100, 400, 400)" opacity="0.40"></line><line x1="667.5" y1="400" x2="132.5" y2="400" transform="rotate(104, 400, 400)" opacity="0.43"></line><line x1="506.5" y1="400" x2="293.5" y2="400" transform="rotate(108, 400, 400)" opacity="0.43"></line><line x1="713.5" y1="400" x2="86.5" y2="400" transform="rotate(112, 400, 400)" opacity="0.61"></line><line x1="277" y1="400" x2="523" y2="400" transform="rotate(116, 400, 400)" opacity="0.70"></line><line x1="400" y1="400" x2="400" y2="400" transform="rotate(120, 400, 400)" opacity="0.44"></line><line x1="486.5" y1="400" x2="313.5" y2="400" transform="rotate(124, 400, 400)" opacity="0.24"></line><line x1="681" y1="400" x2="119" y2="400" transform="rotate(128, 400, 400)" opacity="0.97"></line><line x1="659.5" y1="400" x2="140.5" y2="400" transform="rotate(132, 400, 400)" opacity="0.37"></line><line x1="617.5" y1="400" x2="182.5" y2="400" transform="rotate(136, 400, 400)" opacity="0.22"></line><line x1="56.5" y1="400" x2="743.5" y2="400" transform="rotate(140, 400, 400)" opacity="0.13"></line><line x1="119" y1="400" x2="681" y2="400" transform="rotate(144, 400, 400)" opacity="0.56"></line><line x1="270.5" y1="400" x2="529.5" y2="400" transform="rotate(148, 400, 400)" opacity="0.16"></line><line x1="716.5" y1="400" x2="83.5" y2="400" transform="rotate(152, 400, 400)" opacity="0.70"></line><line x1="315.5" y1="400" x2="484.5" y2="400" transform="rotate(156, 400, 400)" opacity="0.08"></line><line x1="718.5" y1="400" x2="81.5" y2="400" transform="rotate(160, 400, 400)" opacity="0.54"></line><line x1="54.5" y1="400" x2="745.5" y2="400" transform="rotate(164, 400, 400)" opacity="0.69"></line><line x1="604.5" y1="400" x2="195.5" y2="400" transform="rotate(168, 400, 400)" opacity="0.42"></line><line x1="487" y1="400" x2="313" y2="400" transform="rotate(172, 400, 400)" opacity="0.77"></line><line x1="123" y1="400" x2="677" y2="400" transform="rotate(176, 400, 400)" opacity="0.58"></line><line x1="527.5" y1="400" x2="272.5" y2="400" transform="rotate(180, 400, 400)" opacity="0.75"></line><line x1="682.5" y1="400" x2="117.5" y2="400" transform="rotate(184, 400, 400)" opacity="0.09"></line><line x1="278.5" y1="400" x2="521.5" y2="400" transform="rotate(188, 400, 400)" opacity="0.47"></line><line x1="142" y1="400" x2="658" y2="400" transform="rotate(192, 400, 400)" opacity="0.83"></line><line x1="660" y1="400" x2="140" y2="400" transform="rotate(196, 400, 400)" opacity="0.70"></line><line x1="554" y1="400" x2="246" y2="400" transform="rotate(200, 400, 400)" opacity="0.97"></line><line x1="170" y1="400" x2="630" y2="400" transform="rotate(204, 400, 400)" opacity="0.39"></line><line x1="282.5" y1="400" x2="517.5" y2="400" transform="rotate(208, 400, 400)" opacity="0.41"></line><line x1="228.5" y1="400" x2="571.5" y2="400" transform="rotate(212, 400, 400)" opacity="0.30"></line><line x1="489.5" y1="400" x2="310.5" y2="400" transform="rotate(216, 400, 400)" opacity="0.19"></line><line x1="50" y1="400" x2="750" y2="400" transform="rotate(220, 400, 400)" opacity="0.86"></line><line x1="483" y1="400" x2="317" y2="400" transform="rotate(224, 400, 400)" opacity="0.53"></line><line x1="673.5" y1="400" x2="126.5" y2="400" transform="rotate(228, 400, 400)" opacity="0.28"></line><line x1="326" y1="400" x2="474" y2="400" transform="rotate(232, 400, 400)" opacity="0.54"></line><line x1="738" y1="400" x2="62" y2="400" transform="rotate(236, 400, 400)" opacity="0.23"></line><line x1="696" y1="400" x2="104" y2="400" transform="rotate(240, 400, 400)" opacity="0.69"></line><line x1="178.5" y1="400" x2="621.5" y2="400" transform="rotate(244, 400, 400)" opacity="0.97"></line><line x1="172" y1="400" x2="628" y2="400" transform="rotate(248, 400, 400)" opacity="0.35"></line><line x1="634.5" y1="400" x2="165.5" y2="400" transform="rotate(252, 400, 400)" opacity="0.99"></line><line x1="40.5" y1="400" x2="759.5" y2="400" transform="rotate(256, 400, 400)" opacity="0.93"></line><line x1="463.5" y1="400" x2="336.5" y2="400" transform="rotate(260, 400, 400)" opacity="0.67"></line><line x1="732.5" y1="400" x2="67.5" y2="400" transform="rotate(264, 400, 400)" opacity="0.43"></line><line x1="687" y1="400" x2="113" y2="400" transform="rotate(268, 400, 400)" opacity="0.18"></line><line x1="519.5" y1="400" x2="280.5" y2="400" transform="rotate(272, 400, 400)" opacity="0.88"></line><line x1="538.5" y1="400" x2="261.5" y2="400" transform="rotate(276, 400, 400)" opacity="0.80"></line><line x1="245" y1="400" x2="555" y2="400" transform="rotate(280, 400, 400)" opacity="0.72"></line><line x1="277.5" y1="400" x2="522.5" y2="400" transform="rotate(284, 400, 400)" opacity="0.51"></line><line x1="276" y1="400" x2="524" y2="400" transform="rotate(288, 400, 400)" opacity="0.14"></line><line x1="53.5" y1="400" x2="746.5" y2="400" transform="rotate(292, 400, 400)" opacity="0.19"></line><line x1="592" y1="400" x2="208" y2="400" transform="rotate(296, 400, 400)" opacity="0.79"></line><line x1="467.5" y1="400" x2="332.5" y2="400" transform="rotate(300, 400, 400)" opacity="0.88"></line><line x1="734.5" y1="400" x2="65.5" y2="400" transform="rotate(304, 400, 400)" opacity="0.64"></line><line x1="269" y1="400" x2="531" y2="400" transform="rotate(308, 400, 400)" opacity="0.47"></line><line x1="671" y1="400" x2="129" y2="400" transform="rotate(312, 400, 400)" opacity="0.47"></line><line x1="194" y1="400" x2="606" y2="400" transform="rotate(316, 400, 400)" opacity="0.38"></line><line x1="442" y1="400" x2="358" y2="400" transform="rotate(320, 400, 400)" opacity="0.43"></line><line x1="125.5" y1="400" x2="674.5" y2="400" transform="rotate(324, 400, 400)" opacity="0.48"></line><line x1="669.5" y1="400" x2="130.5" y2="400" transform="rotate(328, 400, 400)" opacity="0.63"></line><line x1="742" y1="400" x2="58" y2="400" transform="rotate(332, 400, 400)" opacity="0.53"></line><line x1="166" y1="400" x2="634" y2="400" transform="rotate(336, 400, 400)" opacity="0.89"></line><line x1="629.5" y1="400" x2="170.5" y2="400" transform="rotate(340, 400, 400)" opacity="0.18"></line><line x1="622" y1="400" x2="178" y2="400" transform="rotate(344, 400, 400)" opacity="0.84"></line><line x1="627" y1="400" x2="173" y2="400" transform="rotate(348, 400, 400)" opacity="0.45"></line></g></svg>