<svg xmlns="http://www.w3.org/2000/svg" version="1.1" xmlns:xlink="http://www.w3.org/1999/xlink" xmlns:svgjs="http://svgjs.dev/svgjs" viewBox="0 0 800 800" opacity="0.46"><defs><linearGradient x1="50%" y1="0%" x2="50%" y2="100%" id="wwwhirl-grad"><stop stop-color="hsl(206, 75%, 49%)" stop-opacity="1" offset="45%"></stop><stop stop-color="hsl(331, 90%, 56%)" stop-opacity="1" offset="100%"></stop></linearGradient></defs><g stroke-width="2" stroke="url(#wwwhirl-grad)" fill="none" stroke-linecap="round"><path d="M37.00001384735003 449.0987560607885C158.00000461578338 411.89125889949526 158.0000046157835 332.9387649230925 399.9999861526501 337.47626457690876C641.9999676895166 342.013764230725 641.9999676895166 420.96625820712774 762.9999584579499 462.71125502223725 " transform="rotate(272.25, 400, 400)"></path><path d="M48.00001342773339 447.61092190385057C165.33333780924448 411.5309246565359 165.3333378092446 334.97093049759985 399.9999865722666 339.37093016190653C634.6666353352888 343.7709298262132 634.6666353352888 420.3309239851492 751.9999597167999 460.81092089677054 " transform="rotate(264, 400, 400)"></path><path d="M59.000013008116696 446.1230724881235C172.66667100270558 411.17057515478746 172.6666710027057 337.0030808133182 399.99998699188336 341.2655804881153C627.333302981061 345.5280801629124 627.333302981061 419.6955745043816 740.99996097565 458.91057151251476 " transform="rotate(255.75, 400, 400)"></path><path d="M70.00001258850006 444.6352459605801C180.00000419616674 410.8102485412226 180.0000041961668 339.0352540172201 399.9999874115001 343.1602537025076C619.9999706268333 347.2852533877951 619.9999706268333 419.0602479117976 729.9999622345 457.0102450164426 " transform="rotate(247.5, 400, 400)"></path><path d="M81.00001216888336 443.1474003595503C187.33333738962784 410.44990285417146 187.3333373896279 341.06740814763566 399.99998783111664 345.0549078434136C612.6666382726055 349.0424075391915 612.6666382726055 418.42490224572725 718.9999634933499 455.10989944688407 " transform="rotate(239.25, 400, 400)"></path><path d="M92.00001174926672 441.6595662026124C194.66667058308894 410.08956861121203 194.666670583089 343.0995737221431 399.9999882507334 346.9495734284114C605.3333059183777 350.79957313467975 605.3333059183777 417.7895680237487 707.9999647522 453.20956532141736 " transform="rotate(231, 400, 400)"></path><path d="M103.00001132965002 440.17172060158265C202.00000377655005 409.72922292416087 202.0000037765501 345.13172785255864 399.99998867035004 348.8442275693174C597.99997356415 352.5567272860761 597.99997356415 417.15422235767835 696.99996601105 451.3092197518589 " transform="rotate(222.75, 400, 400)"></path><path d="M114.00001091003338 438.68387500055286C209.33333697001115 409.3688772371097 209.33333697001126 347.1638819829742 399.9999890899667 350.7388817102234C590.6666412099221 354.31388143747256 590.6666412099221 416.51887669160806 685.9999672698999 449.4088741823004 " transform="rotate(214.5, 400, 400)"></path><path d="M125.00001049041668 437.1960446583122C216.66667016347225 409.0085468088476 216.6666701634723 349.1960513721789 399.9999895095833 352.63355110991847C583.3333088556944 356.071050847658 583.3333088556944 415.88354628432677 674.99996852875 447.50854387153095 " transform="rotate(206.25, 400, 400)"></path><path d="M136.00001007080004 435.7081952425852C224.00000335693335 408.64819730709917 224.00000335693346 351.2282016878972 399.99998992920007 354.5282014361272C575.9999765014666 357.82820118435717 575.9999765014666 415.24819680355915 663.9999697876 445.60819448727517 " transform="rotate(198, 400, 400)"></path><path d="M147.0000249099724 434.22035345625267C231.33335180918357 408.28785543474527 231.33335180918357 353.26035963301 400.0000056076058 356.4228593917304C568.666659406028 359.58535915045087 568.666659406028 414.61285495218607 652.999986305239 443.7078527324139 " transform="rotate(189.75, 400, 400)"></path><path d="M158.00002449035577 432.7325116699202C238.66668500264467 407.92751356239137 238.66668500264473 355.29251757812284 400.0000060272224 358.3175173473337C561.3333270518001 361.3425171165445 561.3333270518001 413.97751310081304 641.999987564089 441.8075109775527 " transform="rotate(181.5, 400, 400)"></path><path d="M169.00002407073907 431.24467369828494C246.00001819610577 407.56717550473473 246.00001819610583 357.324679337933 400.00000644683905 360.2121791176342C553.9999946975723 363.0996788973355 553.9999946975723 413.3421750641372 630.999988822939 439.9071730373887 " transform="rotate(173.25, 400, 400)"></path><path d="M180.00002365112243 429.75682428255794C253.33335138956687 407.2068260029863 253.33335138956693 359.3568296536513 400.00000686645575 362.10682944384297C546.6666623433446 364.85682923403465 546.6666623433446 412.7068255833696 619.9999900817891 438.006823653133 " transform="rotate(165, 400, 400)"></path><path d="M191.00002323150574 428.26897486683094C260.666684583028 406.8464765012379 260.66668458302803 361.3889799693696 400.00000728607245 364.0014797700517C539.3333299891168 366.61397957073376 539.3333299891168 412.071476102602 608.9999913406391 436.10647426887715 " transform="rotate(156.75, 400, 400)"></path><path d="M202.0000228118891 426.78114643193885C268.0000177764891 406.4861479803244 268.00001777648913 363.4211512659229 400.0000077056891 365.8961510770954C531.999997634889 368.3711508882679 531.999997634889 411.4361476026694 597.999992599489 434.2061458654564 " transform="rotate(148.5, 400, 400)"></path><path d="M213.0000223922724 425.29330846030365C275.33335096995023 406.1258099226677 275.33335096995023 365.453313025733 400.0000081253057 367.7908128473959C524.6666652806612 370.1283126690588 524.6666652806612 410.8008095659936 586.999993858339 432.3058079252924 " transform="rotate(140.25, 400, 400)"></path><path d="M224.00002197265576 423.8054666739712C282.66668416341133 405.7654680503138 282.66668416341133 367.4854709708458 400.00000854492237 369.6854708029992C517.3333329264335 371.8854706351525 517.3333329264335 410.1654677146205 575.999995117189 430.40546617043117 " transform="rotate(132, 400, 400)"></path><path d="M235.00002155303906 422.3176210729414C290.00001735687243 405.40512236326265 290.00001735687243 369.5176251012614 400.0000089645391 371.58012494390516C510.00000057220564 373.64262478654894 510.00000057220564 409.53012204855014 564.999996376039 428.50512060087266 " transform="rotate(123.75, 400, 400)"></path><path d="M246.00002113342242 420.8297888233521C297.33335055033353 405.0447900276519 297.3333505503336 371.54979258311744 400.00000938415576 373.4747924362516C502.666668217978 375.39979228938574 502.666668217978 408.8947897339203 553.999997634889 426.6047883827546 " transform="rotate(115.5, 400, 400)"></path><path d="M257.0000207138057 419.3419355929278C304.66668374379464 404.6844367112062 304.6666837437947 373.58193908413847 400.0000098037724 375.36943894776306C495.3333358637501 377.15693881138765 495.3333358637501 408.2594364384554 542.9999988937391 424.7044351838016 " transform="rotate(107.25, 400, 400)"></path><path d="M268.0000202941891 417.85409762129257C312.00001693725574 404.3240986535496 312.0000169372558 375.61410084394856 400.0000102233891 377.26410071806356C488.00000350952234 378.9141005921786 488.00000350952234 407.6240984017796 532.0000001525891 422.80409724363756 " transform="rotate(99, 400, 400)"></path><path d="M279.0000046157833 416.3662558349601C319.33333487192783 403.9637567811957 319.33333487192783 377.64625878906145 399.9999953842167 379.15875867366685C480.6666558965055 380.67125855827226 480.6666558965055 406.9887565504065 520.99998615265 420.90375548877637 " transform="rotate(90.75, 400, 400)"></path><path d="M290.0000041961667 414.878412141279C326.66666806538893 403.60341300149315 326.66666806538893 379.67841482682564 399.9999958038334 381.05341472192146C473.33332354227775 382.4284146170173 473.33332354227775 406.35341279168483 509.9999874115 419.0034118265665 " transform="rotate(82.5, 400, 400)"></path><path d="M301.00000377655 413.390577984341C334.00000125885003 403.2430787585338 334.00000125885003 381.710580401333 399.99999622345 382.9480803069193C465.99999118805 384.1855802125055 465.99999118805 405.7180785697063 498.99998867035 417.1030777010998 " transform="rotate(74.25, 400, 400)"></path><path d="M312.00000335693335 411.902728568614C341.33333445231114 402.88272925678535 341.33333445231114 383.74273071705136 399.99999664306665 384.842730633128C458.6666588338222 385.94273054920467 458.6666588338222 405.08272908893866 487.99998992919996 415.202728316844 " transform="rotate(66, 400, 400)"></path><path d="M323.00000293731665 410.41489250432744C348.66666764577224 402.52239310647735 348.66666764577224 385.7748943842101 399.99999706268335 386.7373943107772C451.33332647959446 387.69989423734427 451.33332647959446 404.4473929596115 476.99999118805 413.30239228402866 " transform="rotate(57.75, 400, 400)"></path><path d="M334.0000025177 408.9270488106463C356.00000083923334 402.1620493267748 356.00000083923334 387.8070504219743 399.99999748230005 388.6320503590318C443.99999412536664 389.4570502960893 443.99999412536664 403.8120492008898 465.9999924469 411.4020486218188 " transform="rotate(49.5, 400, 400)"></path><path d="M345.0000020980833 407.43920797798813C363.33333403269444 401.8017084080952 363.33333403269444 389.8392093207615 399.9999979019167 390.5267092683094C436.6666617711389 391.2142092158573 436.6666617711389 403.17670830319105 454.99999370575 409.50170782063185 " transform="rotate(41.25, 400, 400)"></path><path d="M356.0000016784667 405.95136571481845C370.66666722615554 401.4413660589041 370.6666672261556 391.87136678903715 399.9999983215333 392.42136674707547C429.3333294169111 392.97136670511384 429.3333294169111 402.5413659749808 443.9999949646 407.6013655889335 " transform="rotate(33, 400, 400)"></path><path d="M367.00000125885 404.46352440532314C378.0000004196167 401.0810246633874 378.0000004196167 393.90352521098714 399.99999874115 394.3160251795159C421.99999706268335 394.72852514804464 421.99999706268335 401.9060246004449 432.99999622345 405.7010243109094 " transform="rotate(24.75, 400, 400)"></path><path d="M378.00000083923334 402.9756826189907C385.3333336130778 400.7206827910335 385.3333336130778 395.93568315609997 399.99999916076666 396.21068313511915C414.6666647084555 396.48568311413834 414.6666647084555 401.27068274907185 421.9999974823 403.8006825560482 " transform="rotate(16.5, 400, 400)"></path><path d="M389.00000041961664 401.48784178633247C392.6666668065389 400.3603418723539 392.6666668065389 397.96784205488717 399.99999958038336 398.10534204439676C407.33333235422776 398.2428420339063 407.33333235422776 400.6353418513731 410.99999874115 401.90034175486124 " transform="rotate(8.25, 400, 400)"></path></g></svg>